#N canvas 98 72 966 542 10;
#N canvas 290 70 569 608 \; 0;
#N canvas 0 22 450 300 (subpatch) 0;
#X array array4 722304 float 0;
#X coords 0 -1 722303 1 200 70 1 0 0;
#X restore -4809 496 graph;
#X obj -4567 190 soundfiler;
#X floatatom -4567 212 0 0 0 0 - - -;
#X obj -4567 275 soundfiler;
#X floatatom -4567 297 0 0 0 0 - - -;
#N canvas 0 22 450 300 (subpatch) 0;
#X array array1 722304 float 0;
#X coords 0 -1 722303 1 200 70 1;
#X restore -4808 237 graph;
#N canvas 0 22 450 300 (subpatch) 0;
#X array array2 705473 float 0;
#X coords 0 -1 705472 1 200 70 1;
#X restore -4808 323 graph;
#X obj -4570 361 soundfiler;
#X floatatom -4567 385 0 0 0 0 - - -;
#X obj -4567 448 soundfiler;
#X floatatom -4571 478 0 0 0 0 - - -;
#X obj -4746 26 loadbang;
#N canvas 0 22 450 300 (subpatch) 0;
#X array array3 722304 float 0;
#X coords 0 -1 722303 1 200 70 1 0 0;
#X restore -4809 410 graph;
#X obj -4466 480 s length;
#X msg -4597 236 read -resize ShyDrums.wav array2 \; pd dsp 1 \;;
#X msg -4597 325 read -resize ShyGuitar.wav array3 \; pd dsp 1 \;;
#X msg -4597 410 read -resize ShyPiano.wav array4 \; pd dsp 1 \;;
#X msg -4597 150 read -resize ShyBass.wav array1 \; pd dsp 1 \;;
#X connect 1 0 2 0;
#X connect 3 0 4 0;
#X connect 7 0 8 0;
#X connect 9 0 10 0;
#X connect 9 0 13 0;
#X connect 11 0 14 0;
#X connect 11 0 15 0;
#X connect 11 0 16 0;
#X connect 11 0 17 0;
#X connect 14 0 3 0;
#X connect 15 0 7 0;
#X connect 16 0 9 0;
#X connect 17 0 1 0;
#X restore 9 499 pd \; load_files;
#X obj 320 490 dac~;
#X obj 102 148 r~ sS;
#X obj 267 158 r~ aS;
#X obj 469 166 r~ tS;
#X obj 705 175 r~ bS;
#N canvas 26 114 468 618 \; 0;
#X obj 145 9 inlet;
#X obj 185 125 tabplay~ array1;
#X obj 165 176 tabplay~ array2;
#X obj 145 228 tabplay~ array3;
#X obj 145 40 t b b b b;
#X obj 205 75 tabplay~ array4;
#X obj 264 151 s~ sS;
#X obj 282 100 s~ bS;
#X obj 244 203 s~ aS;
#X obj 223 251 s~ tS;
#X obj 279 250 del 1;
#X connect 0 0 4 0;
#X connect 1 0 6 0;
#X connect 2 0 8 0;
#X connect 3 0 9 0;
#X connect 3 1 10 0;
#X connect 4 0 3 0;
#X connect 4 1 2 0;
#X connect 4 2 1 0;
#X connect 4 3 5 0;
#X connect 5 0 7 0;
#X connect 10 0 4 0;
#X restore 8 457 pd \; phase II;
#X obj 8 402 loadbang;
#X text 117 133 bass;
#X text 263 139 drums;
#X text 468 142 guitar;
#X text 703 154 piano;
#N canvas 753 199 264 179 del_line_bass 0;
#X obj 18 31 inlet~;
#N canvas 1365 356 528 262 delay_channels 0;
#X obj 18 29 inlet~ signal;
#X obj 194 29 inlet del-left;
#X obj 376 29 inlet del-right;
#X obj 194 157 sig~;
#X obj 376 157 sig~;
#X obj 144 213 outlet~;
#X obj 245 215 outlet~;
#N canvas 0 22 450 212 delay-writer 0;
#X obj 22 27 inlet~;
#X obj 52 87 delwrite~ \$0-delline1 2000;
#X obj 116 113 delwrite~ \$0-delline2 2000;
#X obj 22 159 outlet~;
#X connect 0 0 1 0;
#X connect 0 0 2 0;
#X connect 0 0 3 0;
#X restore 144 77 pd delay-writer;
#N canvas 1671 22 450 300 delay-reader 0;
#X obj 146 173 vd~ \$0-delline1;
#X obj 328 173 vd~ \$0-delline2;
#X obj 146 199 outlet~;
#X obj 327 199 outlet~;
#X obj 146 147 inlet~;
#X obj 328 147 inlet~;
#X obj 35 39 inlet~;
#X text 34 61 dummy;
#X text 34 75 (to force execution order !);
#X connect 0 0 2 0;
#X connect 1 0 3 0;
#X connect 4 0 0 0;
#X connect 5 0 1 0;
#X restore 144 185 pd delay-reader;
#X text 153 116 <- needed for right execution order !;
#X connect 0 0 7 0;
#X connect 1 0 3 0;
#X connect 2 0 4 0;
#X connect 3 0 8 1;
#X connect 4 0 8 2;
#X connect 7 0 8 0;
#X connect 8 0 5 0;
#X connect 8 1 6 0;
#X restore 44 82 pd delay_channels;
#X obj 20 126 outlet~;
#X obj 135 119 outlet~;
#X obj 78 29 r bass_ITD_L;
#X obj 170 28 r bass_ITD_R;
#X connect 0 0 1 0;
#X connect 1 0 2 0;
#X connect 1 1 3 0;
#X connect 4 0 1 1;
#X connect 5 0 1 2;
#X restore 45 221 pd del_line_bass;
#N canvas 698 129 415 446 del_line_drums 0;
#X obj 38 12 inlet~;
#X floatatom 286 191 5 0 0 0 - - -;
#N canvas 89 356 528 262 delay_channels 0;
#X obj 18 29 inlet~ signal;
#X obj 194 29 inlet del-left;
#X obj 376 29 inlet del-right;
#X obj 194 157 sig~;
#X obj 376 157 sig~;
#X obj 144 213 outlet~;
#X obj 245 215 outlet~;
#N canvas 0 22 450 212 delay-writer 0;
#X obj 22 27 inlet~;
#X obj 22 159 outlet~;
#X obj 52 87 delwrite~ \$0-delline3 2000;
#X obj 116 113 delwrite~ \$0-delline4 2000;
#X connect 0 0 1 0;
#X connect 0 0 2 0;
#X connect 0 0 3 0;
#X restore 144 77 pd delay-writer;
#N canvas 1671 22 450 300 delay-reader 0;
#X obj 146 199 outlet~;
#X obj 327 199 outlet~;
#X obj 146 147 inlet~;
#X obj 328 147 inlet~;
#X obj 35 39 inlet~;
#X text 34 61 dummy;
#X text 34 75 (to force execution order !);
#X obj 146 173 vd~ \$0-delline3;
#X obj 328 173 vd~ \$0-delline4;
#X connect 2 0 7 0;
#X connect 3 0 8 0;
#X connect 7 0 0 0;
#X connect 8 0 1 0;
#X restore 144 185 pd delay-reader;
#X text 153 116 <- needed for right execution order !;
#X connect 0 0 7 0;
#X connect 1 0 3 0;
#X connect 2 0 4 0;
#X connect 3 0 8 1;
#X connect 4 0 8 2;
#X connect 7 0 8 0;
#X connect 8 0 5 0;
#X connect 8 1 6 0;
#X restore 86 215 pd delay_channels;
#X obj 90 306 outlet~;
#X obj 166 307 outlet~;
#X obj 211 93 r drums_ITD_R;
#X obj 107 96 r drums_ITD_L;
#X connect 0 0 2 0;
#X connect 2 0 3 0;
#X connect 2 1 4 0;
#X connect 5 0 2 2;
#X connect 6 0 2 1;
#X restore 248 249 pd del_line_drums;
#N canvas 217 234 415 446 del_line_guitar 0;
#X obj 38 12 inlet~;
#N canvas 503 418 528 262 delay_channels 0;
#X obj 18 29 inlet~ signal;
#X obj 194 29 inlet del-left;
#X obj 376 29 inlet del-right;
#X obj 194 157 sig~;
#X obj 376 157 sig~;
#X obj 144 213 outlet~;
#X obj 245 215 outlet~;
#N canvas 553 180 450 212 delay-writer 0;
#X obj 22 27 inlet~;
#X obj 22 159 outlet~;
#X obj 52 87 delwrite~ \$0-delline5 1;
#X obj 62 118 delwrite~ \$0-delline6 1;
#X connect 0 0 1 0;
#X connect 0 0 2 0;
#X connect 0 0 3 0;
#X restore 144 77 pd delay-writer;
#N canvas 90 224 450 300 delay-reader 0;
#X obj 146 199 outlet~;
#X obj 327 199 outlet~;
#X obj 146 147 inlet~;
#X obj 328 147 inlet~;
#X obj 35 39 inlet~;
#X text 34 61 dummy;
#X text 34 75 (to force execution order !);
#X obj 146 173 vd~ \$0-delline5;
#X obj 328 173 vd~ \$0-delline6;
#X connect 2 0 7 0;
#X connect 3 0 8 0;
#X connect 7 0 0 0;
#X connect 8 0 1 0;
#X restore 144 185 pd delay-reader;
#X text 153 116 <- needed for right execution order !;
#X connect 0 0 7 0;
#X connect 1 0 3 0;
#X connect 2 0 4 0;
#X connect 3 0 8 1;
#X connect 4 0 8 2;
#X connect 7 0 8 0;
#X connect 8 0 5 0;
#X connect 8 1 6 0;
#X restore 86 215 pd delay_channels;
#X obj 90 306 outlet~;
#X obj 166 307 outlet~;
#X obj 122 78 r guitar_ITD_L;
#X obj 226 76 r guitar_ITD_R;
#X connect 0 0 1 0;
#X connect 1 0 2 0;
#X connect 1 1 3 0;
#X connect 4 0 1 1;
#X connect 5 0 1 2;
#X restore 472 250 pd del_line_guitar;
#N canvas 423 275 415 446 del_line_piano 0;
#X obj 38 12 inlet~;
#N canvas 1365 356 528 262 delay_channels 0;
#X obj 18 29 inlet~ signal;
#X obj 194 29 inlet del-left;
#X obj 376 29 inlet del-right;
#X obj 194 157 sig~;
#X obj 376 157 sig~;
#X obj 144 213 outlet~;
#X obj 245 215 outlet~;
#N canvas 0 22 450 212 delay-writer 0;
#X obj 22 27 inlet~;
#X obj 22 159 outlet~;
#X obj 52 87 delwrite~ \$0-delline7 2000;
#X obj 116 113 delwrite~ \$0-delline8 2000;
#X connect 0 0 1 0;
#X connect 0 0 2 0;
#X connect 0 0 3 0;
#X restore 144 77 pd delay-writer;
#N canvas 1671 22 450 300 delay-reader 0;
#X obj 146 199 outlet~;
#X obj 327 199 outlet~;
#X obj 146 147 inlet~;
#X obj 328 147 inlet~;
#X obj 35 39 inlet~;
#X text 34 61 dummy;
#X text 34 75 (to force execution order !);
#X obj 146 173 vd~ \$0-delline7;
#X obj 328 173 vd~ \$0-delline8;
#X connect 2 0 7 0;
#X connect 3 0 8 0;
#X connect 7 0 0 0;
#X connect 8 0 1 0;
#X restore 144 185 pd delay-reader;
#X text 153 116 <- needed for right execution order !;
#X connect 0 0 7 0;
#X connect 1 0 3 0;
#X connect 2 0 4 0;
#X connect 3 0 8 1;
#X connect 4 0 8 2;
#X connect 7 0 8 0;
#X connect 8 0 5 0;
#X connect 8 1 6 0;
#X restore 86 215 pd delay_channels;
#X obj 90 306 outlet~;
#X obj 166 307 outlet~;
#X obj 122 78 r piano_ITD_L;
#X obj 221 105 r piano_ITD_R;
#X connect 0 0 1 0;
#X connect 1 0 2 0;
#X connect 1 1 3 0;
#X connect 4 0 1 1;
#X connect 5 0 1 2;
#X restore 713 254 pd del_line_piano;
#X obj 154 134 r bass_AMP;
#X obj 71 193 *~ 0.25;
#X obj 269 215 *~ 0.25;
#X obj 475 218 *~ 0.25;
#X obj 704 223 *~ 0.25;
#X obj 321 148 r drums_AMP;
#X obj 520 140 r guitar_AMP;
#X obj 751 139 r piano_AMP;
#X obj 173 201 r bass_SWITCH;
#X obj 373 228 r drums_SWITCH;
#X obj 589 215 r guitar_SWITCH;
#X obj 835 248 r piano_SWITCH;
#X obj 395 19 loadbang;
#N canvas 562 354 450 300 \; 1;
#X obj 56 30 inlet;
#X obj 141 31 inlet;
#X obj 105 161 outlet;
#X obj 106 85 *;
#X connect 0 0 3 0;
#X connect 1 0 3 1;
#X connect 3 0 2 0;
#X restore 133 172 pd \; custom_gate;
#N canvas 562 354 450 300 \; 0;
#X obj 56 30 inlet;
#X obj 141 31 inlet;
#X obj 105 161 outlet;
#X obj 106 85 *;
#X connect 0 0 3 0;
#X connect 1 0 3 1;
#X connect 3 0 2 0;
#X restore 328 178 pd \; custom_gate;
#N canvas 562 354 450 300 \; 0;
#X obj 56 30 inlet;
#X obj 141 31 inlet;
#X obj 105 161 outlet;
#X obj 106 85 *;
#X connect 0 0 3 0;
#X connect 1 0 3 1;
#X connect 3 0 2 0;
#X restore 516 177 pd \; custom_gate;
#N canvas 449 477 450 300 \; 1;
#X obj 56 30 inlet;
#X obj 141 31 inlet;
#X obj 105 161 outlet;
#X obj 106 85 *;
#X obj 176 191 print;
#X connect 0 0 3 0;
#X connect 1 0 3 1;
#X connect 3 0 2 0;
#X connect 3 0 4 0;
#X restore 769 179 pd \; custom_gate;
#X obj 750 384 send piano_AMP;
#X msg 731 344 0.1;
#X msg 432 77 1;
#X connect 2 0 17 0;
#X connect 3 0 18 0;
#X connect 4 0 19 0;
#X connect 5 0 20 0;
#X connect 7 0 6 0;
#X connect 12 0 1 0;
#X connect 12 1 1 1;
#X connect 13 0 1 0;
#X connect 13 1 1 1;
#X connect 14 0 1 0;
#X connect 14 1 1 1;
#X connect 15 0 1 0;
#X connect 15 1 1 1;
#X connect 16 0 29 0;
#X connect 17 0 12 0;
#X connect 18 0 13 0;
#X connect 19 0 14 0;
#X connect 20 0 15 0;
#X connect 21 0 30 0;
#X connect 22 0 31 0;
#X connect 23 0 32 0;
#X connect 24 0 29 1;
#X connect 25 0 30 1;
#X connect 26 0 31 1;
#X connect 27 0 32 1;
#X connect 28 0 35 0;
#X connect 29 0 17 1;
#X connect 30 0 18 1;
#X connect 31 0 19 1;
#X connect 32 0 20 1;
#X connect 34 0 33 0;
#X connect 35 0 29 1;
#X connect 35 0 30 1;
#X connect 35 0 31 1;
#X connect 35 0 32 1;
